PathFileType	4	(X/Y/Z)	./resultDataOpenSim/trcMotMarkerGrf/sub06/qtm-05-01.trc
DataRate	CameraRate	NumFrames	NumMarkers	Units	OrigDataRate	OrigDataStartFrame	OrigNumFrames
250.000000	250.000000	7	24	m	250.000000	399	531
Frame#	Time	L.Toe.Tip			R.Toe.Tip			L.Ankle.Lat			R.Ankle.Lat			L.Ankle.Med			R.Ankle.Med			L.Heel			R.Heel			L.Knee.Lat			R.Knee.Lat			L.Knee.Med			R.Knee.Med			L.Thigh.Upper			R.Thigh.Upper			L.ASIS			R.ASIS			V.Sacral			L.Acromium			R.Acromium			C7			L.Elbow			R.Elbow			L.Wrist.Lat			R.Wrist.Lat
		X1	Y1	Z1	X2	Y2	Z2	X3	Y3	Z3	X4	Y4	Z4	X5	Y5	Z5	X6	Y6	Z6	X7	Y7	Z7	X8	Y8	Z8	X9	Y9	Z9	X10	Y10	Z10	X11	Y11	Z11	X12	Y12	Z12	X13	Y13	Z13	X14	Y14	Z14	X15	Y15	Z15	X16	Y16	Z16	X17	Y17	Z17	X18	Y18	Z18	X19	Y19	Z19	X20	Y20	Z20	X21	Y21	Z21	X22	Y22	Z22	X23	Y23	Z23	X24	Y24	Z24

399	1.592	1.475563	0.11099506	-0.046697829	0.84279431	0.03463551	0.10816261	1.3484966	0.095130726	-0.057903192	0.71571549	0.08721048	0.12108012	1.3538178	0.1131568	0.02536637	0.75063009	0.10749527	0.038161128	1.2964986	0.039973572	-0.0060894194	0.66457535	0.082252849	0.056481683	1.2591228	0.45495414	-0.063601155	0.90432058	0.43324815	0.16901038	1.2522228	0.4451622	0.059275726	0.89248066	0.43395444	0.036906818	1.0795088	0.80270032	-0.10664942	0.99399476	0.78428076	0.23098463	1.1370102	0.84825483	-0.046817843	1.1040543	0.83610883	0.20048907	0.93534304	0.91158529	0.058469876	1.0274315	1.3191875	-0.11388558	1.0474962	1.3169053	0.24879337	0.96073299	1.3530509	0.071283954	0.9340388	1.0214486	-0.1471202	1.0521256	0.9957663	0.33457646	0.99675297	0.79641717	-0.21204322	1.2902358	0.94741875	0.27491855
400	1.596	1.4855638	0.11265293	-0.046156855	0.84289868	0.034442165	0.10805583	1.3586857	0.095089854	-0.057239331	0.71623223	0.088057262	0.12142617	1.3639082	0.11292003	0.026274452	0.7511707	0.10804497	0.038342226	1.3075179	0.03906981	-0.0051990757	0.6649657	0.083568737	0.056976232	1.2646209	0.45319133	-0.062624774	0.90802784	0.43250469	0.16915145	1.2568467	0.44320389	0.060501672	0.89615832	0.4332178	0.037064728	1.0859502	0.80093106	-0.10679021	0.99876512	0.78278371	0.23024701	1.1433134	0.8466058	-0.046672183	1.109673	0.83439289	0.20042286	0.94149303	0.91013104	0.057942466	1.0331796	1.3176849	-0.1142542	1.0526671	1.3153915	0.24856431	0.96618414	1.3515732	0.070823776	0.93945957	1.0201118	-0.14735649	1.0578566	0.99426898	0.33456602	1.0012825	0.79493363	-0.21247202	1.2958055	0.94607138	0.2745849
401	1.6	1.4950491	0.11400319	-0.045538053	0.84299999	0.034290778	0.10797469	1.3683348	0.094985404	-0.056550688	0.71685952	0.088940275	0.12186348	1.3733794	0.11262894	0.027144986	0.75174627	0.10871735	0.038592705	1.317799	0.038205609	-0.004429282	0.66539717	0.084960308	0.057526165	1.2702599	0.45157006	-0.061649825	0.91187606	0.43173783	0.16934731	1.2615349	0.44135112	0.061707487	0.89999301	0.43243294	0.037208423	1.0924263	0.79919383	-0.10695533	1.0035752	0.78129307	0.22948381	1.1496249	0.84497174	-0.046556905	1.1153762	0.83270431	0.20032775	0.94768209	0.90866304	0.057457415	1.0389895	1.3161936	-0.11465277	1.0578775	1.3138922	0.2483133	0.97168147	1.3500997	0.070343853	0.9449683	1.0187717	-0.14761652	1.0635604	0.99279891	0.33454809	1.0059211	0.79345774	-0.21291174	1.3013324	0.94464633	0.27428769
402	1.604	1.504009	0.1150395	-0.044863817	0.84309427	0.034212862	0.10794566	1.3774444	0.094774009	-0.055810897	0.71757029	0.089868272	0.12234061	1.3821063	0.11232104	0.027894395	0.75240729	0.10943667	0.039095276	1.327333	0.037363667	-0.0039152784	0.66587658	0.086458298	0.058186598	1.2760157	0.45008424	-0.060694626	0.91583937	0.43095189	0.16956509	1.2663207	0.43961123	0.06286819	0.90399208	0.43160933	0.03733087	1.0989453	0.79750843	-0.10714573	1.0085253	0.77986457	0.22880423	1.1559466	0.84336007	-0.046467135	1.1211598	0.83103984	0.20020154	0.95390767	0.90718642	0.05701083	1.0448546	1.314715	-0.11508097	1.0631298	1.312411	0.24803647	0.97721726	1.3486372	0.069841014	0.95056086	1.0174315	-0.14790164	1.0692292	0.99135289	0.33451622	1.0106729	0.79199719	-0.21335678	1.3068138	0.94314486	0.27402117
403	1.608	1.5124317	0.11572238	-0.044109109	0.84319436	0.03418417	0.10795074	1.3860092	0.094415739	-0.055003493	0.71835006	0.090846982	0.12283448	1.3899358	0.11187385	0.028551604	0.75315052	0.11014409	0.039829759	1.3361594	0.03648609	-0.0035654068	0.66642222	0.088073568	0.058916988	1.2818502	0.4487129	-0.059778068	0.91989431	0.43014896	0.16977614	1.2712313	0.43798868	0.06395146	0.9081381	0.43076622	0.037443427	1.1054988	0.79588805	-0.10735314	1.0136552	0.77851214	0.2282452	1.1622814	0.84178164	-0.046395998	1.1270108	0.82940685	0.20005042	0.96016096	0.90571643	0.056580942	1.0507736	1.3132532	-0.11553451	1.0684232	1.3109502	0.24773047	0.98278671	1.3471878	0.069306705	0.95622437	1.016098	-0.14821496	1.0748474	0.98992791	0.33446136	1.0155444	0.79055803	-0.21380475	1.3122479	0.9415657	0.27378554
404	1.612	1.5202977	0.11599077	-0.043217277	0.8433103	0.034175514	0.10797068	1.3940223	0.093872091	-0.054114804	0.71919231	0.091881771	0.12334322	1.3968676	0.11114229	0.02923272	0.75396092	0.11086751	0.040597427	1.3443167	0.035514984	-0.0032041912	0.66704747	0.089798936	0.059642498	1.2877313	0.44742961	-0.05891674	0.92403475	0.4293301	0.16996844	1.2762748	0.4364837	0.064929672	0.91240595	0.42992169	0.037559554	1.112073	0.79434502	-0.10756064	1.0189319	0.77720391	0.22776298	1.1686264	0.84024429	-0.046345503	1.1329266	0.82781953	0.19988315	0.96642809	0.90427801	0.05613247	1.0567518	1.3118127	-0.11600808	1.0737605	1.3095145	0.24739616	0.98839854	1.345749	0.06873922	0.96195152	1.014781	-0.14855775	1.0804113	0.9885308	0.33438552	1.0205405	0.78913933	-0.21425959	1.3176368	0.93990558	0.27359278
405	1.616	1.5275994	0.11579991	-0.042161834	0.84344361	0.034175181	0.10799965	1.4014776	0.093107212	-0.053143592	0.72008821	0.092980786	0.12387431	1.4031462	0.11011559	0.030028852	0.75484179	0.11167188	0.041241631	1.3518224	0.034415261	-0.0027265866	0.66775759	0.091619767	0.060337906	1.2936435	0.44620966	-0.058126522	0.92826975	0.42849823	0.17014202	1.2814467	0.43509691	0.065787416	0.91678543	0.429083	0.03768379	1.1186655	0.79289796	-0.10775145	1.0243035	0.77590794	0.2272976	1.1749746	0.83874827	-0.046334084	1.1389103	0.82629853	0.19972761	0.97270121	0.90289173	0.055643408	1.0627921	1.3103971	-0.1165001	1.0791481	1.3081101	0.24703667	0.99407348	1.3443177	0.068133834	0.96774979	1.0134849	-0.14892891	1.0859237	0.98716833	0.33428757	1.0256593	0.78773649	-0.21472662	1.3229801	0.93817164	0.27344986
